<?xml version="1.0" encoding="utf-8"?>
<!-- Generator: Adobe Illustrator 16.0.3, SVG Export Plug-In . SVG Version: 6.00 Build 0)  -->
<!DOCTYPE svg PUBLIC "-//W3C//DTD SVG 1.1//EN" "http://www.w3.org/Graphics/SVG/1.1/DTD/svg11.dtd">
<svg version="1.1" id="Layer_1" xmlns="http://www.w3.org/2000/svg" xmlns:xlink="http://www.w3.org/1999/xlink" x="0px" y="0px"
	 width="300px" height="100px" viewBox="0 0 300 100" enable-background="new 0 0 300 100" xml:space="preserve">
<g>
	<g>
		<path fill="#FFFFFF" d="M227.35,62.961c0,0,4.576-5.943,4.554-8.494c0,0,3.247,1.293,13-3.041c0,0-3.867,7.59-3.344,12.85
			c0,0-5.083,2.596-7.773,5.012l15.328,0.498l0.533-23.186l-23.54,0.568L227.35,62.961z"/>
		<path fill="#FFFFFF" d="M236.989,61.521c0.655-0.666,0.646-1.738-0.02-2.393c-0.667-0.654-1.738-0.646-2.394,0.021
			c-0.53,0.539-0.625,1.346-0.287,1.98l-6.539,6.652l0.724,0.711l6.539-6.652C235.653,62.17,236.459,62.063,236.989,61.521z"/>
	</g>
	<g>
		<path fill="#FFFFFF" d="M233.108,22.607c0,0,5.942,4.576,8.495,4.554c0,0-1.293,3.247,3.041,12.999c0,0-7.589-3.866-12.85-3.343
			c0,0-2.597-5.083-5.013-7.774l-0.498,15.329l23.188,0.533l-0.569-23.541L233.108,22.607z"/>
		<path fill="#FFFFFF" d="M234.548,32.248c0.666,0.655,1.738,0.646,2.393-0.021c0.655-0.666,0.646-1.737-0.021-2.393
			c-0.54-0.531-1.347-0.625-1.981-0.287l-6.652-6.54l-0.711,0.724l6.651,6.539C233.899,30.912,234.007,31.716,234.548,32.248z"/>
	</g>
	<g>
		<path fill="#FFFFFF" d="M274.277,28.367c0,0-4.576,5.942-4.555,8.495c0,0-3.246-1.294-12.999,3.04c0,0,3.867-7.589,3.343-12.849
			c0,0,5.083-2.596,7.774-5.012l-15.329-0.499l-0.533,23.187l23.541-0.569L274.277,28.367z"/>
		<path fill="#FFFFFF" d="M264.637,29.806c-0.655,0.667-0.646,1.738,0.021,2.393c0.667,0.655,1.738,0.646,2.394-0.021
			c0.53-0.541,0.625-1.347,0.287-1.981l6.539-6.652l-0.725-0.712l-6.539,6.652C265.973,29.157,265.168,29.265,264.637,29.806z"/>
	</g>
	<g>
		<path fill="#FFFFFF" d="M268.066,68.721c0,0-5.942-4.576-8.495-4.555c0,0,1.294-3.246-3.039-13c0,0,7.589,3.867,12.849,3.344
			c0,0,2.596,5.084,5.012,7.775l0.499-15.331l-23.187-0.533l0.568,23.542L268.066,68.721z"/>
		<path fill="#FFFFFF" d="M266.627,59.08c-0.666-0.654-1.736-0.645-2.392,0.02c-0.656,0.668-0.646,1.738,0.021,2.395
			c0.54,0.531,1.346,0.625,1.98,0.287l6.652,6.539l0.712-0.725l-6.652-6.539C267.275,60.416,267.168,59.611,266.627,59.08z"/>
	</g>
	<g>
		<rect x="33.65" y="33.43" fill="none" width="186.106" height="171.001"/>
		<path fill="#FFFFFF" stroke="#FFFFFF" stroke-miterlimit="10" d="M33.65,58.391c1.02-0.492,1.477-1.195,1.477-2.813V36.243
			c0-1.6-0.457-2.32-1.477-2.813h11.391c5.906,0,8.807,3.445,8.807,7.102c0,4.148-3.744,8.578-11.109,8.578
			c-0.439,0-0.914-0.018-1.389-0.053v6.521c0,1.617,0.475,2.32,1.477,2.813H33.65z M47.589,40.708c0-3.445-2.092-6.645-6.047-6.645
			h-0.193v14.572C45.585,47.633,47.589,44.047,47.589,40.708z"/>
		<path fill="#FFFFFF" stroke="#FFFFFF" stroke-miterlimit="10" d="M56.027,55.139v-15.89c0-1.635-0.264-2.109-1.529-2.848
			l7.295-2.971v22.482c0,0.932,0.316,1.951,1.143,2.197c-0.721,0.193-1.564,0.299-2.408,0.299
			C58.294,58.408,56.027,57.617,56.027,55.139z"/>
		<path fill="#FFFFFF" stroke="#FFFFFF" stroke-miterlimit="10" d="M79.019,47.176v8.736c0,0.932,0.352,1.951,1.16,2.197
			c-0.703,0.176-1.564,0.299-2.408,0.299c-2.004,0-4.043-0.65-4.43-2.584c-1.178,1.354-2.813,2.408-4.359,2.549
			c-0.246,0.018-0.492,0.035-0.721,0.035c-3.129,0-4.799-2.197-4.799-4.658c0-3.146,2.725-6.732,8.613-6.732
			c0.369,0,0.756,0,1.143,0.035c-0.316-2.637-2.391-3.92-4.641-3.92c-1.055,0-2.162,0.281-3.146,0.861
			c1.846-1.881,4.148-2.689,6.328-2.707C75.574,41.288,79.019,43.749,79.019,47.176z M69.21,52.168c0,1.986,1.16,3.832,2.619,3.832
			c0.475,0,0.967-0.193,1.459-0.615c-0.018-0.088-0.018-0.176-0.018-0.246v-7.681C70.3,48.161,69.21,50.235,69.21,52.168z"/>
		<path fill="#FFFFFF" stroke="#FFFFFF" stroke-miterlimit="10" d="M92.695,55.139v-7.33c0-2.813-1.195-4.395-2.777-4.395
			c-0.422,0-0.879,0.123-1.354,0.369v11.32c0,2.496-2.268,3.305-4.5,3.305c-0.844,0-1.688-0.105-2.408-0.299
			c0.826-0.246,1.16-1.283,1.16-2.215v-8.771c0-1.635-0.264-2.109-1.529-2.848l7.277-2.971v1.74
			c1.301-1.213,2.742-1.723,4.096-1.723c3.076,0,5.783,2.602,5.783,5.854v8.736c0,0.932,0.334,1.951,1.16,2.197
			c-0.721,0.193-1.564,0.299-2.408,0.299C94.962,58.408,92.695,57.617,92.695,55.139z"/>
		<path fill="#FFFFFF" stroke="#FFFFFF" stroke-miterlimit="10" d="M100.57,58.391c1.02-0.492,1.477-1.195,1.477-2.813V36.243
			c0-1.6-0.457-2.32-1.477-2.813h11.391c5.906,0,8.807,3.445,8.807,7.102c0,4.148-3.744,8.578-11.109,8.578
			c-0.439,0-0.914-0.018-1.389-0.053v6.521c0,1.617,0.475,2.32,1.477,2.813H100.57z M114.509,40.708
			c0-3.445-2.092-6.645-6.047-6.645h-0.193v14.572C112.505,47.633,114.509,44.047,114.509,40.708z"/>
		<path fill="#FFFFFF" stroke="#FFFFFF" stroke-miterlimit="10" d="M120.117,49.866l0.018-0.563
			c0.316-5.361,5.045-8.016,8.367-8.016c3.111,0.018,5.15,2.18,5.15,4.764c0,2.391-2.021,5.695-6.082,5.994
			c1.371,0.703,2.953,1.072,4.57,1.072c0.932,0,1.881-0.123,2.813-0.369c-1.406,3.973-4.148,5.643-6.908,5.643
			C124.089,58.391,120.117,54.945,120.117,49.866z M129.099,48.002c0-0.703-0.176-1.371-0.457-1.951
			c-0.914-1.863-2.197-2.637-3.287-2.637c-1.213,0-2.197,0.967-2.197,2.479c0,0.844,0.299,1.828,1.02,2.918
			c0.879,1.336,2.092,2.548,3.076,3.076C128.589,50.569,129.099,49.215,129.099,48.002z"/>
		<path fill="#FFFFFF" stroke="#FFFFFF" stroke-miterlimit="10" d="M146.712,55.139v-7.33c0-2.813-1.195-4.395-2.777-4.395
			c-0.422,0-0.879,0.123-1.354,0.369v11.32c0,2.496-2.268,3.305-4.5,3.305c-0.844,0-1.688-0.105-2.408-0.299
			c0.826-0.246,1.16-1.283,1.16-2.215v-8.771c0-1.635-0.264-2.109-1.529-2.848l7.277-2.971v1.74
			c1.301-1.213,2.742-1.723,4.096-1.723c3.076,0,5.784,2.602,5.784,5.854v8.736c0,0.932,0.334,1.951,1.16,2.197
			c-0.721,0.193-1.564,0.299-2.408,0.299C148.98,58.408,146.712,57.617,146.712,55.139z"/>
		<path fill="#FFFFFF" stroke="#FFFFFF" stroke-miterlimit="10" d="M154.588,56.422c0-1.09,0.896-1.986,2.004-1.986
			c1.09,0,1.986,0.896,1.986,1.986c0,1.107-0.896,2.004-1.986,2.004C155.484,58.426,154.588,57.529,154.588,56.422z"/>
		<path fill="#FFFFFF" stroke="#FFFFFF" stroke-miterlimit="10" d="M175.541,47.176v8.736c0,0.932,0.352,1.951,1.16,2.197
			c-0.703,0.176-1.564,0.299-2.408,0.299c-2.004,0-4.043-0.65-4.43-2.584c-1.178,1.354-2.813,2.408-4.359,2.549
			c-0.246,0.018-0.492,0.035-0.721,0.035c-3.129,0-4.799-2.197-4.799-4.658c0-3.146,2.725-6.732,8.613-6.732
			c0.369,0,0.756,0,1.143,0.035c-0.316-2.637-2.391-3.92-4.641-3.92c-1.055,0-2.162,0.281-3.146,0.861
			c1.846-1.881,4.148-2.689,6.328-2.707C172.096,41.288,175.541,43.749,175.541,47.176z M165.732,52.168
			c0,1.986,1.16,3.832,2.619,3.832c0.475,0,0.967-0.193,1.459-0.615c-0.018-0.088-0.018-0.176-0.018-0.246v-7.681
			C166.822,48.161,165.732,50.235,165.732,52.168z"/>
		<path fill="#FFFFFF" stroke="#FFFFFF" stroke-miterlimit="10" d="M177.545,65.967c0.826-0.246,1.16-1.283,1.16-2.215v-6.557h0.018
			l-0.018-0.018V47.106c0-1.617-0.264-2.109-1.529-2.83l7.295-2.988v2.355c1.107-1.617,2.654-2.338,4.201-2.338
			c2.057,0,4.131,1.266,5.238,3.34c0.756,1.406,1.125,3.164,1.125,4.922c0,1.863-0.404,3.744-1.16,5.273
			c-1.213,2.443-3.322,3.586-5.309,3.586c-1.635,0-3.182-0.756-4.096-2.18v6.715c0,2.496-2.268,3.305-4.5,3.305
			C179.109,66.266,178.266,66.16,177.545,65.967z M188.742,48.407c0-1.283-0.123-2.531-0.334-3.568
			c-0.229-1.143-1.02-1.723-1.916-1.723c-0.668,0-1.389,0.299-2.021,0.896v11.197c0.563,0.51,1.072,0.738,1.512,0.738
			C187.846,55.947,188.742,52.027,188.742,48.407z"/>
		<path fill="#FFFFFF" stroke="#FFFFFF" stroke-miterlimit="10" d="M196.195,65.967c0.826-0.246,1.16-1.283,1.16-2.215v-6.557h0.018
			l-0.018-0.018V47.106c0-1.617-0.264-2.109-1.529-2.83l7.295-2.988v2.355c1.107-1.617,2.654-2.338,4.201-2.338
			c2.057,0,4.131,1.266,5.238,3.34c0.756,1.406,1.125,3.164,1.125,4.922c0,1.863-0.404,3.744-1.16,5.273
			c-1.213,2.443-3.322,3.586-5.309,3.586c-1.635,0-3.182-0.756-4.096-2.18v6.715c0,2.496-2.268,3.305-4.5,3.305
			C197.76,66.266,196.916,66.16,196.195,65.967z M207.393,48.407c0-1.283-0.123-2.531-0.334-3.568
			c-0.229-1.143-1.02-1.723-1.916-1.723c-0.668,0-1.389,0.299-2.021,0.896v11.197c0.563,0.51,1.072,0.738,1.512,0.738
			C206.496,55.947,207.393,52.027,207.393,48.407z"/>
	</g>
</g>
<g>
</g>
<g>
</g>
<g>
</g>
<g>
</g>
<g>
</g>
<g>
</g>
</svg>
